#format: frame checksums
#version: 2
#hash: MD5
#extradata 0,                              42, e89deaac1c1a77d78033d7d9c66b8264
#tb 0: 1/61440
#media_type 0: video
#codec_id 0: ffv1
#dimensions 0: 640x360
#sar 0: 0/1
#stream#, dts,        pts, duration,     size, hash
0,          0,          0,     2048,    25819, 47f80c645fdcde1f8a8c11885294f72b
0,       2048,       2048,     2048,    25516, 6bb39e02246649e9656e1f6bf6631343
0,       4096,       4096,     2048,    26373, 0045a0ab92ace27f40af2f86b0313f4c
0,       6144,       6144,     2048,    25843, db4264b3bff53934becbbe37b5499b24
0,       8192,       8192,     2048,    25879, fe40142b27e5303b1da0d220ef413ab3
0,      10240,      10240,     2048,    27809, 94b159cd232c4b9a5e4ab44ec1b11dc1
0,      12288,      12288,     2048,    25931, 53978ced5354f9ceeac64957499aad0a
0,      14336,      14336,     2048,    26092, b4e1904bbb7e786069cd9844035717ed
0,      16384,      16384,     2048,    29016, cc4eb49e0d5a38b6ff03858a0bd87ac7
0,      18432,      18432,     2048,    27740, e576b50ce054a0bf1b0cc723c910f00c
0,      20480,      20480,     2048,    28036, 88c555d154f5b6bb080dfde3656661fe
0,      22528,      22528,     2048,    26914, 0e4eb84d06206eb97e4c63432b36cd67
0,      24576,      24576,     2048,    28967, fe9b82b022e7e1b2a6cbcb04744e25fc
0,      26624,      26624,     2048,    28020, 51458c61d2f5f2bbfe34ccb1e40452c8
0,      28672,      28672,     2048,    27145, 14d616c9ad3118b7fe95aef53678bfe9
0,      30720,      30720,     2048,    28799, 30f83655527250d9ef3bee5f0bdc20fd
0,      32768,      32768,     2048,    28257, 345f658bfe23c0606ed5be8fcdffa892
0,      34816,      34816,     2048,    27158, 0214bd578678915155cfa367d5a5d7d6
0,      36864,      36864,     2048,    29090, 3132fba3ca5e863ffb06ea12c287a8f9
0,      38912,      38912,     2048,    29162, efc48106ae25210b8dc98a9c59f098a5
0,      40960,      40960,     2048,    27743, 683424bbc49f1bd786651294a0760830
0,      43008,      43008,     2048,    26307, 5eec4440c43993f70ec35545e5b14a74
0,      45056,      45056,     2048,    26133, 15304574501a2c266cb9140aab5913f9
0,      47104,      47104,     2048,    27509, cdbfa461387eb399d92857d99e65e030
0,      49152,      49152,     2048,    26190, ac481d4a2356001bbfffabb9febcc5c5
0,      51200,      51200,     2048,    27471, f824aa94ad123eeb5b8d21d5b5e87666
0,      53248,      53248,     2048,    27403, b1446a0f6e152fbb7c4fce13a76b3317
0,      55296,      55296,     2048,    26462, 208776d9d69c369bbe6d913726164d40
0,      57344,      57344,     2048,    27945, a4314b4e16f173a9f8aa828e1b7bf5cb
0,      59392,      59392,     2048,    26998, c750be195a2161897a05375067d53060
0,      61440,      61440,     2048,    26998, c750be195a2161897a05375067d53060
